<?xml version="1.0" standalone="no"?><svg xmlns:xlink="http://www.w3.org/1999/xlink" xmlns="http://www.w3.org/2000/svg" viewBox="0 0 1200 1050.002797138599" preserveAspectRatio="xMaxYMax slice"><g transform="scale(1.7213160608829492)"><rect x="0" y="0" width="697.1428571428571" height="610" fill="#ffffff"/><circle cx="43.575" cy="43.575" r="8.715" fill="#cfebea"/><circle cx="130.715" cy="43.575" r="8.715" fill="#f8b581"/><circle cx="217.855" cy="43.575" r="8.715" fill="#f38733"/><circle cx="305.005" cy="43.575" r="8.715" fill="#feede0"/><circle cx="392.145" cy="43.575" r="8.715" fill="#fffbf8"/><circle cx="479.28499999999997" cy="43.575" r="8.715" fill="#fff4ec"/><circle cx="566.4250000000001" cy="43.575" r="8.715" fill="#fee7d7"/><circle cx="653.575" cy="43.575" r="8.715" fill="#e9f6f5"/><circle cx="43.575" cy="130.715" r="8.715" fill="#d6eeed"/><circle cx="130.715" cy="130.715" r="8.715" fill="#f38935"/><circle cx="217.855" cy="130.715" r="8.715" fill="#f4f6ed"/><circle cx="305.005" cy="130.715" r="8.715" fill="#fa710d"/><circle cx="392.145" cy="130.715" r="8.715" fill="#fff5ee"/><circle cx="479.28499999999997" cy="130.715" r="8.715" fill="#fb7a1d"/><circle cx="566.4250000000001" cy="130.715" r="8.715" fill="#fa6f0b"/><circle cx="653.575" cy="130.715" r="8.715" fill="#c4e7e5"/><circle cx="43.575" cy="217.855" r="8.715" fill="#f9c49a"/><circle cx="130.715" cy="217.855" r="8.715" fill="#a8dbd8"/><circle cx="217.855" cy="217.855" r="8.715" fill="#f2f3e9"/><circle cx="305.005" cy="217.855" r="8.715" fill="#fdb784"/><circle cx="392.145" cy="217.855" r="8.715" fill="#ceebe9"/><circle cx="479.28499999999997" cy="217.855" r="8.715" fill="#f5984f"/><circle cx="566.4250000000001" cy="217.855" r="8.715" fill="#c8e9e7"/><circle cx="653.575" cy="217.855" r="8.715" fill="#fee6d4"/><circle cx="43.575" cy="305.005" r="8.715" fill="#e7f5f4"/><circle cx="130.715" cy="305.005" r="8.715" fill="#f6a361"/><circle cx="217.855" cy="305.005" r="8.715" fill="#fca769"/><circle cx="305.005" cy="305.005" r="8.715" fill="#fed3b5"/><circle cx="392.145" cy="305.005" r="8.715" fill="#f0f9f8"/><circle cx="479.28499999999997" cy="305.005" r="8.715" fill="#fdd1b2"/><circle cx="566.4250000000001" cy="305.005" r="8.715" fill="#fb7f25"/><circle cx="653.575" cy="305.005" r="8.715" fill="#fffbf8"/><circle cx="43.575" cy="392.145" r="8.715" fill="#c9e9e7"/><circle cx="130.715" cy="392.145" r="8.715" fill="#fca76a"/><circle cx="217.855" cy="392.145" r="8.715" fill="#fce5d3"/><circle cx="305.005" cy="392.145" r="8.715" fill="#f8bc8c"/><circle cx="392.145" cy="392.145" r="8.715" fill="#cae9e8"/><circle cx="479.28499999999997" cy="392.145" r="8.715" fill="#d0ecea"/><circle cx="566.4250000000001" cy="392.145" r="8.715" fill="#fbd5b7"/><circle cx="653.575" cy="392.145" r="8.715" fill="#bfe5e3"/><circle cx="43.575" cy="479.28499999999997" r="8.715" fill="#fce5d2"/><circle cx="130.715" cy="479.28499999999997" r="8.715" fill="#fed7bb"/><circle cx="217.855" cy="479.28499999999997" r="8.715" fill="#fa7717"/><circle cx="305.005" cy="479.28499999999997" r="8.715" fill="#fb791b"/><circle cx="392.145" cy="479.28499999999997" r="8.715" fill="#eceedf"/><circle cx="479.28499999999997" cy="479.28499999999997" r="8.715" fill="#fedbc2"/><circle cx="566.4250000000001" cy="479.28499999999997" r="8.715" fill="#fdcaa5"/><circle cx="653.575" cy="479.28499999999997" r="8.715" fill="#b9e2e0"/><circle cx="43.575" cy="566.4250000000001" r="8.715" fill="#fca668"/><circle cx="130.715" cy="566.4250000000001" r="8.715" fill="#feddc6"/><circle cx="217.855" cy="566.4250000000001" r="8.715" fill="#feddc5"/><circle cx="305.005" cy="566.4250000000001" r="8.715" fill="#ecefe0"/><circle cx="392.145" cy="566.4250000000001" r="8.715" fill="#fc9f5b"/><circle cx="479.28499999999997" cy="566.4250000000001" r="8.715" fill="#fbdac0"/><circle cx="566.4250000000001" cy="566.4250000000001" r="8.715" fill="#fc974f"/><circle cx="653.575" cy="566.4250000000001" r="8.715" fill="#fef2ea"/></g></svg>